<?xml version="1.0"?>
<svg xmlns:rdf="http://www.w3.org/1999/02/22-rdf-syntax-ns#" xmlns="http://www.w3.org/2000/svg" xmlns:cc="http://web.resource.org/cc/" xmlns:xlink="http://www.w3.org/1999/xlink" xmlns:dc="http://purl.org/dc/elements/1.1/" xmlns:svg="http://www.w3.org/2000/svg" id="svg2" xml:space="preserve" viewBox="0 0 448 433" version="1.1" enable-background="new 0 0 448 433">
  <defs id="defs4">
		<radialGradient id="XMLID_1_" gradientUnits="userSpaceOnUse" cy="393.79" cx="216.7" r="296.7">
			<stop id="stop13" stop-color="#F4D708" offset="0"/>
			<stop id="stop15" stop-color="#FCB400" offset="1"/>
		</radialGradient>
	<filter id="filter2827"><feGaussianBlur id="feGaussianBlur2829" stdDeviation="3.4898235"/></filter><filter id="filter3266" y="-.13197" width="1.2695" x="-.13473" height="1.2639"><feGaussianBlur id="feGaussianBlur3268" stdDeviation="10.372821"/></filter><radialGradient id="radialGradient3274" gradientUnits="userSpaceOnUse" cy="87.35" cx="-409.77" gradientTransform="matrix(.78071 1.8152 -1.0896 .46861 5.3129 789.47)" r="92.391"><stop id="stop2849" stop-color="#ffea95" offset="0"/><stop id="stop2855" stop-color="#ffea95" stop-opacity=".49804" offset=".67857"/><stop id="stop2851" stop-color="#ffea95" stop-opacity="0" offset="1"/></radialGradient><filter id="filter3310" y="-.86283" width="1.1367" x="-.06835" height="2.7257"><feGaussianBlur id="feGaussianBlur3312" stdDeviation="10.210732"/></filter></defs>
  <path id="path2181" opacity=".29" filter="url(#filter2827)" d="m22.28 396.83l184.85-368.8c0 0.002 26.41-31.502 52.82 0.002 26.41 31.506 180.19 370.66 180.19 370.66s3.1 18.53-27.96 18.53h-361.94s-23.3 0-27.96-20.39z"/>
  <path id="path17" d="m8.551 390.5l184.85-368.8c0-0.005 26.41-31.509 52.82-0.005 26.41 31.506 180.19 370.66 180.19 370.66 0-0.01 3.11 18.52-27.96 18.52h-361.94c0.001 0-23.299 0-27.959-20.38z" fill="url(#XMLID_1_)"/>
  <path id="path19" stroke="#e2a713" stroke-width="5" fill="none" d="m8.551 390.5l184.85-368.8c0-0.005 26.41-31.509 52.82-0.005 26.41 31.506 180.19 370.66 180.19 370.66 0-0.01 3.11 18.52-27.96 18.52h-361.94c0.001 0-23.299 0-27.959-20.38z"/>
  <g id="g3270" transform="translate(611.7 2.1122)">
    <path id="path2845" filter="url(#filter3266)" transform="translate(-6.3366 -7.3927)" fill="url(#radialGradient3274)" d="m-392.06 28.938c-0.12 0.203-0.32 0.564-0.6 1.062 0.52-0.67 0.55-0.926 0.6-1.062zm5.65 0.75c0.04 0.055 0.48 0.431 0.57 0.531-0.05-0.078-0.22-0.35-0.25-0.407-0.15-0.224-0.47-0.392-0.32-0.124zm-1.75 0.937c-1.72-0.12-3.94 0.62-5.56 1.344-0.79 1.462-1.61 2.946-2.81 5.219-3.22 6.068-7.75 14.756-13.13 25.124-10.76 20.737-24.9 48.258-39 75.808-10.2 19.96-19.15 37.58-27.96 54.97 8.96-3.34 18.1-6.08 27.37-8.09 20.02-4.33 46.2-4.38 66.03 0.06 15.51 3.48 28.26 8.2 48.19 17.56 8.75 4.12 20.15 9.05 22.03 9.76 7.61 2.85 15.01 4.59 20.19 5.18 0.36 0.04 0.62-0.01 0.97 0v-0.03l-45.69-92.19c-18.08-36.478-30.21-60.739-38.03-75.965-3.92-7.613-6.78-12.973-8.63-16.281-0.31-0.568-0.4-0.684-0.65-1.125-0.7-0.431-1.5-0.947-1.72-1.031-0.31-0.12-0.87-0.263-1.6-0.313z"/>
  </g>
  <path id="path25" d="m212.5 292.63c-13.168-79.969-19.75-123.12-19.75-129.45 0-7.703 2.551-13.926 7.66-18.676 5.105-4.746 10.871-7.121 17.293-7.121 6.949 0 12.82 2.535 17.609 7.598s7.188 11.023 7.188 17.883c0 6.543-6.668 49.801-20 129.77h-10zm27 38.17c0 6.098-2.156 11.301-6.469 15.613-4.313 4.309-9.461 6.465-15.453 6.465-6.098 0-11.301-2.156-15.613-6.465-4.313-4.313-6.465-9.516-6.465-15.613 0-5.992 2.152-11.141 6.465-15.453s9.516-6.469 15.613-6.469c5.992 0 11.141 2.156 15.453 6.469s6.48 9.45 6.48 15.44z"/>
  <path id="path3280" filter="url(#filter3310)" transform="translate(389.7 10.561)" fill="#ffea96" d="m-245.47 358.16c-9.35 0.01-19.04 0.64-29.69 1.81-26.1 2.86-50.47 10.01-70.78 20.59-1.58 0.83-2.02 1.17-3.12 1.78 0.07 0.01 0.11 0 0.18 0 9.31 0.45 21.75 1.01 34.76 1.57 26 1.11 54.45 2.22 64.56 2.47 17.49 0.42 77.94 0.04 127.34-0.5-8.64-2.46-18.26-5.44-29.94-9.32-39.78-13.22-65.24-18.46-93.31-18.4zm250.66 10.53c-4.7426 5.36-10.858 9.83-17.562 13.59 10.726-0.66 17.775-1.14 21.843-1.47-0.9772-4.54-2.5232-8.74-4.2815-12.12z"/>
<metadata><rdf:RDF><cc:Work><dc:format>image/svg+xml</dc:format><dc:type rdf:resource="http://purl.org/dc/dcmitype/StillImage"/><cc:license rdf:resource="http://creativecommons.org/licenses/publicdomain/"/><dc:publisher><cc:Agent rdf:about="http://openclipart.org/"><dc:title>Openclipart</dc:title></cc:Agent></dc:publisher><dc:title>Warning notification</dc:title><dc:date>2007-04-03T07:27:52</dc:date><dc:description>cleanup: bitmap images replaced. As this uses blur, expect it to look bad in firefox 2</dc:description><dc:source>http://openclipart.org/detail/3743/warning-notification-by-zeimusu</dc:source><dc:creator><cc:Agent><dc:title>zeimusu</dc:title></cc:Agent></dc:creator><dc:subject><rdf:Bag><rdf:li>alert</rdf:li><rdf:li>clip art</rdf:li><rdf:li>clipart</rdf:li><rdf:li>icon</rdf:li><rdf:li>image</rdf:li><rdf:li>media</rdf:li><rdf:li>notification</rdf:li><rdf:li>png</rdf:li><rdf:li>public domain</rdf:li><rdf:li>remix</rdf:li><rdf:li>sign</rdf:li><rdf:li>svg</rdf:li><rdf:li>warning</rdf:li></rdf:Bag></dc:subject></cc:Work><cc:License rdf:about="http://creativecommons.org/licenses/publicdomain/"><cc:permits rdf:resource="http://creativecommons.org/ns#Reproduction"/><cc:permits rdf:resource="http://creativecommons.org/ns#Distribution"/><cc:permits rdf:resource="http://creativecommons.org/ns#DerivativeWorks"/></cc:License></rdf:RDF></metadata></svg>
